P2
# new year
38 7
255
 255 255 255 255 255 255 255  17  17  17  17  51 255 255  47   2  11 132 255 252  11  17  17  17  12 255 255  20 113 255 255 255 255 255 255 255 255 255
 255 255 255 255 255 255 255  38   0 177 185 196 255 130   0 228 141   0 246 254 214 156   0 213 214 255 255  49   0 244 255 255 255 255 255 255 255 255
 255 255 255 255 255 255 255 253  55   7 224 255 255  13  26 255 228   0 123 255 255 185   0 253 255 255 255 245   0 157 255 255 255 255 255 255 255 255
 255 255 255 255 255 255 255 255 255  82   1 224 255   0  32 255 232   0  87 255 255 185   0 253 255 255 255 255  27   0 251 255 255 255 255 255 255 255
 255 255 255 255 255 255 255 255 255 255   0  59 255  13  27 255 228   0 123 255 255 185   0 253 255 255 255 255 207   0 190 255 255 255 255 255 255 255
 255 255 255 255 255 255 255  94 215 173   0  57 255 134   1 203 121   0 244 251  91 111   0 253 255 255 147 144 150   9  17 255 255 255 255 255 255 255
 255 255 255 255 255 255 255  65   3   0  54 227 255 252  85   0  17 150 255 252  90  38  34 253 255 255  35  30  30  33  34 255 255 255 255 255 255 255
