P2
# CREATOR: GIMP PNM Filter Version 1.1
35 7
255
255
255
255
255
235
103
26
20
59
192
255
235
98
24
23
99
236
255
246
182
54
126
255
255
242
122
38
29
53
171
255
255
255
255
255
255
255
255
255
226
137
155
146
20
69
255
149
20
132
125
20
145
255
179
47
20
114
255
255
151
20
118
206
51
59
228
255
254
255
255
255
255
255
255
251
255
255
249
23
52
241
90
42
230
235
38
73
247
247
149
20
107
255
255
184
42
77
155
72
121
250
255
255
255
255
255
255
255
254
255
255
255
125
20
167
243
72
61
237
245
50
57
241
255
220
27
106
255
255
236
85
32
21
20
158
255
255
255
255
255
255
255
255
255
255
248
125
29
147
255
250
77
43
230
235
38
72
245
255
219
24
108
255
255
132
33
176
207
59
39
209
255
254
255
255
255
255
255
255
235
107
20
57
140
163
234
142
20
128
121
20
142
255
229
132
20
67
185
249
121
20
139
205
70
44
208
255
254
255
255
255
255
254
255
207
77
56
82
57
80
216
241
110
36
36
110
239
255
171
67
61
62
99
228
242
111
42
43
72
179
255
255
255
255
255
